<?xml version="1.0" encoding="utf-8"?>
<!-- Generator: Adobe Illustrator 26.0.0, SVG Export Plug-In . SVG Version: 6.00 Build 0)  -->
<svg width='195' height='40' version="1.1" id="Layer_1" xmlns="http://www.w3.org/2000/svg" xmlns:xlink="http://www.w3.org/1999/xlink" x="0px" y="0px"
	 viewBox="0 0 1000 300" style="enable-background:new 0 0 1000 300;" xml:space="preserve">
<style type="text/css">
	.st0{fill:#FFFFFF; }
</style>
<g id="Layer_2_00000162329131757020665440000004541943890709931424_">
	<g>
		<path class="st0" d="M231,145.3H128.5v-13.5h81.9l-26.8-28.3h18.6l32.1,34C237.2,140.4,235.1,145.3,231,145.3z"/>
		<path class="st0" d="M235.7,172.2h-82l26.8,28.3h-18.6l-32.1-34c-2.8-3-0.7-7.8,3.4-7.8h102.5L235.7,172.2L235.7,172.2z"/>
	</g>
	<path class="st0" d="M85,142h10.8c0.3-2.5,0.7-5,1.2-7.5c1.1-5.6,2.8-11,5.1-16.3c2.2-5.2,4.9-10.1,8-14.8
		c3.1-4.6,6.7-8.9,10.6-12.9c3.9-3.9,8.3-7.5,12.9-10.6c4.6-3.1,9.6-5.8,14.8-8c5.2-2.2,10.7-3.9,16.3-5.1c2.5-0.5,5-0.9,7.5-1.2
		V54.9C126.2,59.6,89.7,96.1,85,142z M268.4,162.1c-0.3,2.5-0.7,5-1.2,7.5c-1.1,5.6-2.8,11-5.1,16.3c-2.2,5.2-4.9,10.1-8,14.8
		c-3.1,4.6-6.7,8.9-10.6,12.9c-3.9,3.9-8.3,7.5-12.9,10.6c-4.6,3.1-9.6,5.8-14.8,8c-5.2,2.2-10.7,3.9-16.3,5.1
		c-2.5,0.5-5,0.9-7.5,1.2v10.8c45.9-4.7,82.3-41.2,87-87H268.4L268.4,162.1z M148.3,232c-5.2-2.2-10.1-4.9-14.8-8
		c-4.6-3.1-8.9-6.7-12.9-10.6c-3.9-3.9-7.5-8.3-10.6-12.9c-3.1-4.6-5.8-9.6-8-14.8c-2.2-5.2-3.9-10.7-5.1-16.3
		c-0.5-2.5-0.9-5-1.2-7.5H85c4.7,45.9,41.2,82.3,87,87v-10.8c-2.5-0.3-5-0.7-7.5-1.2C159,236,153.5,234.3,148.3,232z M192.1,54.9
		v10.8c2.5,0.3,5,0.7,7.5,1.2c5.6,1.1,11,2.8,16.3,5.1c5.2,2.2,10.1,4.9,14.8,8c4.6,3.1,8.9,6.7,12.9,10.6
		c3.9,3.9,7.5,8.3,10.6,12.9c3.1,4.6,5.8,9.6,8,14.8c2.2,5.2,3.9,10.7,5.1,16.3c0.5,2.5,0.9,5,1.2,7.5h10.8
		C274.5,96.1,238,59.6,192.1,54.9z"/>
</g>
<g>
	<polygon class="st0" points="525.5,129.1 525.5,174.9 509.2,174.9 509.2,180.6 549.2,180.6 549.2,174.9 533.2,174.9 533.2,129.1
		549.2,129.1 549.2,123.4 509.2,123.4 509.2,129.1 	"/>
	<path class="st0" d="M477.3,123.4h-11.7l-20.9,57.2h7.7l5.5-15.3h26.4l5.1,15.3h8.5L477.3,123.4z M460.1,159.3l10.4-29h1.9l9.8,29
		H460.1z"/>
	<path class="st0" d="M414.9,156c9.9-1.4,16.2-5.7,16.2-16c0-11-7.2-16.6-18.9-16.6h-26.8v5.8l16.3,21.3h-16.3v30.1h7.8v-24.1h13.1
		l18.5,24.1h8.8L414.9,156z M410.7,150.5l-15.6-20.2v-0.9h16.9c6.5,0,10.5,3,10.5,10.6c0,7.9-4.2,10.5-10.5,10.5H410.7z"/>
	<path class="st0" d="M343.7,122.7c-16,0-25.3,10.6-25.3,29.6c0,18.3,8.7,28.9,24.7,28.9c15.9,0,24.9-10.6,24.9-29.6
		C368,133.4,359.6,122.7,343.7,122.7z M359.4,156.6c0,11.3-5.1,18.9-16,18.9c-11,0-16-7.5-16-18.9v-9.1c0-11.9,5-18.9,16-18.9
		c11.1,0,16,7.3,16,18.9V156.6z"/>
	<g>
		<path class="st0" d="M567.5,123.4h24.3c6.1,0,10.9,1.3,14.4,4c3.5,2.7,5.3,6.3,5.3,10.7c0,3.3-1,5.9-3,7.9c-2,2-4.7,3.5-8.2,4.3
			v0.2c4.3,0.8,7.7,2.3,10.1,4.5c2.5,2.2,3.7,5.2,3.7,9c0,3.1-0.8,5.8-2.5,8.4c-1.7,2.5-4,4.5-6.9,5.9c-2.9,1.4-6.2,2.2-9.8,2.2
			h-27.3V123.4z M590.8,148.2c3.7,0,6.5-0.7,8.6-2c2-1.3,3-3.2,3-5.8v-3.2c0-2.6-1-4.5-3-5.9c-2-1.3-4.9-2-8.6-2h-14.7v18.8H590.8z
			 M592.3,174.6c4,0,7.2-0.7,9.4-2.2c2.2-1.5,3.3-3.6,3.3-6.5v-3.4c0-2.8-1.1-5-3.3-6.5c-2.2-1.5-5.3-2.2-9.4-2.2h-16.2v20.7H592.3z
			"/>
		<path class="st0" d="M637.8,180.6h-8.6v-57.2h26c6.6,0,11.6,1.4,15.1,4.3c3.5,2.9,5.3,6.9,5.3,12.1c0,4.6-1.5,8.4-4.6,11.1
			c-3,2.8-7.4,4.4-13.1,4.8l18.2,24.7h-9.6l-17.4-24.4h-11.4V180.6z M655,150.4c3.6,0,6.4-0.7,8.5-2.2c2-1.4,3-3.5,3-6.2v-4.3
			c0-2.7-1-4.7-3-6.2c-2-1.4-4.8-2.2-8.5-2.2h-17.2v21H655z"/>
		<path class="st0" d="M690,180.6v-5.5h17.8v-46.2H690v-5.5h44.2v5.5h-17.8v46.2h17.8v5.5H690z"/>
		<path class="st0" d="M752.6,123.4h20c8.7,0,15.2,2.4,19.5,7.2c4.3,4.8,6.5,11.9,6.5,21.4c0,9.4-2.2,16.6-6.5,21.4
			c-4.3,4.8-10.8,7.2-19.5,7.2h-20V123.4z M772.1,174.6c5.6,0,9.9-1.6,12.9-4.8c3-3.2,4.5-7.6,4.5-13.4v-8.8
			c0-5.8-1.5-10.3-4.5-13.4c-3-3.2-7.3-4.7-12.9-4.7h-11v45.2H772.1z"/>
		<path class="st0" d="M849.8,173h-0.5c-1.4,2.6-3.3,4.7-5.7,6.3c-2.5,1.6-5.9,2.3-10.4,2.3c-7.6,0-13.4-2.5-17.3-7.5
			c-3.9-5-5.8-12.2-5.8-21.7c0-9.8,2.1-17.3,6.4-22.4c4.2-5.1,10.6-7.6,19.2-7.6c6.1,0,10.8,1.2,14.3,3.5c3.4,2.3,6.1,5.3,7.9,9
			l-7.4,2.7c-1.5-3-3.3-5.3-5.4-6.9c-2.1-1.6-5.2-2.4-9.1-2.4c-5.6,0-9.8,1.7-12.5,5c-2.8,3.3-4.1,8-4.1,13.9v8.8
			c0,6.1,1.3,10.9,3.8,14.4c2.5,3.5,6.6,5.2,12.1,5.2c4.5,0,8.1-1.1,10.8-3.3c2.7-2.2,4-5.1,4-8.7v-5.9h-15.1v-5.5h23v28.3h-8V173z"
			/>
		<path class="st0" d="M875,180.6v-57.2h44v6h-35.4v19.2h34.2v6h-34.2v20H919v6H875z"/>
	</g>
</g>
</svg>
