<?xml version="1.0" encoding="utf-8"?>
<!-- Generator: Adobe Illustrator 26.0.0, SVG Export Plug-In . SVG Version: 6.00 Build 0)  -->
<svg version="1.1" id="Layer_1" xmlns="http://www.w3.org/2000/svg" xmlns:xlink="http://www.w3.org/1999/xlink" x="0px" y="0px"
	 viewBox="0 0 1000 1000" style="enable-background:new 0 0 1000 1000;" xml:space="preserve">
<style type="text/css">
	.st0{fill:#FFFFFF;}
</style>
<g id="Layer_2_00000162329131757020665440000004541943890709931424_">
	<g>
		<path class="st0" d="M692.6,473.6H289.1v-53.1h322.6L506.2,309.1h73.1l126.5,133.7C716.9,454.5,708.6,473.6,692.6,473.6z"/>
		<path class="st0" d="M710.9,579.5H388.3l105.5,111.4h-73.1L294.2,557.2c-11-11.7-2.8-30.8,13.3-30.8H711L710.9,579.5L710.9,579.5z
			"/>
	</g>
	<path class="st0" d="M117.8,460.5h42.5c1.1-9.9,2.8-19.7,4.7-29.4c4.5-21.9,11.2-43.5,19.9-64.1c8.6-20.3,19.1-39.8,31.5-58.1
		c12.2-18.2,26.3-35.2,41.8-50.6s32.5-29.5,50.6-41.8c18.2-12.3,37.8-22.9,58.1-31.5c20.6-8.7,42.2-15.4,64.1-19.9
		c9.7-1.9,19.5-3.6,29.4-4.7v-42.6C279.8,136.3,136.2,279.9,117.8,460.5z M839.6,539.6c-1.1,9.9-2.8,19.7-4.7,29.4
		c-4.5,21.9-11.2,43.5-19.9,64.1c-8.6,20.3-19.1,39.8-31.5,58.1c-12.2,18.2-26.3,35.2-41.8,50.6c-15.5,15.5-32.5,29.5-50.6,41.8
		c-18.2,12.3-37.8,22.9-58.1,31.5c-20.6,8.7-42.2,15.4-64.1,19.9c-9.7,1.9-19.5,3.6-29.4,4.7v42.5
		C720,863.7,863.6,720.1,882.1,539.6H839.6L839.6,539.6z M366.9,815.1c-20.3-8.6-39.8-19.1-58.1-31.5
		c-18.2-12.2-35.2-26.3-50.6-41.8c-15.5-15.5-29.5-32.5-41.8-50.6c-12.3-18.2-22.9-37.8-31.5-58.1c-8.7-20.6-15.4-42.2-19.9-64.1
		c-1.9-9.7-3.6-19.5-4.7-29.4h-42.5c18.5,180.5,162.1,324.1,342.6,342.6v-42.5c-9.9-1.1-19.7-2.8-29.4-4.7
		C409.1,830.6,387.5,823.9,366.9,815.1z M539.6,117.8v42.5c9.9,1.1,19.7,2.8,29.4,4.7c21.9,4.5,43.5,11.2,64.1,19.9
		c20.3,8.6,39.8,19.1,58.1,31.5c18.2,12.2,35.2,26.3,50.6,41.8c15.5,15.5,29.5,32.5,41.8,50.6c12.3,18.2,22.9,37.8,31.5,58.1
		c8.7,20.6,15.4,42.2,19.9,64.1c1.9,9.7,3.6,19.5,4.7,29.4h42.6C863.7,279.9,720.2,136.3,539.6,117.8z"/>
</g>
</svg>
